<svg width="25" height="25" viewBox="0 0 25 25" fill="none" xmlns="http://www.w3.org/2000/svg">
<mask id="mask0_23_741" style="mask-type:alpha" maskUnits="userSpaceOnUse" x="0" y="0" width="25" height="25">
<rect x="0.268555" y="0.109619" width="24" height="24" fill="#D9D9D9"/>
</mask>
<g mask="url(#mask0_23_741)">
<path d="M8.26855 13.1096H16.2686C16.5519 13.1096 16.7894 13.0138 16.9811 12.8221C17.1727 12.6305 17.2686 12.393 17.2686 12.1096C17.2686 11.8263 17.1727 11.5888 16.9811 11.3971C16.7894 11.2055 16.5519 11.1096 16.2686 11.1096H8.26855C7.98522 11.1096 7.74772 11.2055 7.55605 11.3971C7.36439 11.5888 7.26855 11.8263 7.26855 12.1096C7.26855 12.393 7.36439 12.6305 7.55605 12.8221C7.74772 13.0138 7.98522 13.1096 8.26855 13.1096ZM5.26855 21.1096C4.71855 21.1096 4.24772 20.9138 3.85605 20.5221C3.46439 20.1305 3.26855 19.6596 3.26855 19.1096V5.10962C3.26855 4.55962 3.46439 4.08879 3.85605 3.69712C4.24772 3.30545 4.71855 3.10962 5.26855 3.10962H19.2686C19.8186 3.10962 20.2894 3.30545 20.6811 3.69712C21.0727 4.08879 21.2686 4.55962 21.2686 5.10962V19.1096C21.2686 19.6596 21.0727 20.1305 20.6811 20.5221C20.2894 20.9138 19.8186 21.1096 19.2686 21.1096H5.26855ZM5.26855 19.1096H19.2686V5.10962H5.26855V19.1096Z" fill="#1C1B1F"/>
</g>
</svg>
